<?xml version="1.0" standalone="no"?>
<!DOCTYPE svg PUBLIC "-//W3C//DTD SVG 20010904//EN"
 "http://www.w3.org/TR/2001/REC-SVG-20010904/DTD/svg10.dtd">
<svg version="1.0" xmlns="http://www.w3.org/2000/svg"
 width="512.000000pt" height="512.000000pt" viewBox="0 0 512.000000 512.000000"
 preserveAspectRatio="xMidYMid meet">

<g transform="translate(0.000000,512.000000) scale(0.100000,-0.100000)"
fill="#000000" stroke="none">
<path d="M2523 3314 c-3 -9 -3 -405 0 -880 l6 -864 -130 0 -129 0 0 -255 0
-255 -225 0 -226 0 3 93 3 92 128 3 127 3 0 669 0 670 -36 0 -37 0 4 -382 4
-383 -610 -5 -610 -5 0 -27 -1 -28 613 0 613 0 -2 -222 -3 -223 -127 -3 -128
-3 0 -124 0 -125 -228 0 -227 0 -18 33 c-49 91 -194 89 -242 -3 l-16 -30 -129
0 -130 0 0 -35 0 -35 129 0 129 0 20 -34 c28 -47 65 -69 115 -69 56 0 104 26
124 68 l17 35 228 0 228 0 0 -100 0 -100 -46 0 c-45 0 -45 0 -42 -32 3 -31 6
-33 46 -36 l42 -3 0 -105 0 -104 30 0 30 0 0 240 0 240 225 0 225 0 0 -356 0
-355 33 3 32 3 3 353 2 352 165 0 165 0 0 35 0 35 -165 0 -165 0 0 220 0 220
125 0 125 0 0 915 0 915 -30 0 c-19 0 -33 -6 -37 -16z"/>
<path d="M2780 2030 l0 -860 30 0 30 0 0 165 0 165 685 0 685 0 0 30 0 30
-165 0 -165 0 0 355 0 355 295 0 295 0 0 35 0 35 -295 0 -295 0 0 125 0 125
-35 0 -35 0 0 -515 0 -515 -487 0 -486 0 7 413 c4 227 4 526 0 665 l-7 252
-29 0 -28 0 0 -860z"/>
<path d="M290 1790 l0 -30 115 0 115 0 0 30 0 30 -115 0 -115 0 0 -30z"/>
<path d="M4934 1669 c-34 -10 -94 -70 -94 -94 0 -13 -28 -15 -175 -15 l-175 0
0 -30 0 -30 175 0 174 0 16 -30 c37 -71 145 -94 205 -44 35 30 60 73 60 105 0
36 -37 103 -67 121 -38 22 -82 28 -119 17z"/>
<path d="M4133 1140 c-18 -10 -39 -33 -48 -49 l-15 -31 -183 -2 -182 -3 -3
-32 -3 -33 184 0 185 0 20 -34 c28 -47 63 -68 114 -68 61 -1 106 25 129 75 10
23 19 51 19 61 0 34 -38 101 -69 119 -39 23 -108 22 -148 -3z"/>
<path d="M2957 1053 c-4 -3 -7 -19 -7 -35 l0 -28 235 0 235 0 0 35 0 35 -228
0 c-126 0 -232 -3 -235 -7z"/>
</g>
</svg>
