<?xml version="1.0" standalone="no"?>
<!DOCTYPE svg PUBLIC "-//W3C//DTD SVG 20010904//EN"
 "http://www.w3.org/TR/2001/REC-SVG-20010904/DTD/svg10.dtd">
<svg version="1.0" xmlns="http://www.w3.org/2000/svg"
 width="300.000000pt" height="300.000000pt" viewBox="0 0 300.000000 300.000000"
 preserveAspectRatio="xMidYMid meet">

<g transform="translate(0.000000,300.000000) scale(0.100000,-0.100000)"
fill="#000000" stroke="none">
<path d="M665 2770 c-22 -11 -166 -93 -320 -183 -214 -124 -285 -170 -303
-196 l-23 -35 3 -387 3 -388 29 -30 c16 -17 68 -53 115 -80 47 -27 185 -106
305 -175 196 -113 224 -126 266 -126 42 0 71 14 276 131 297 171 308 178 312
212 4 36 -13 57 -47 57 -15 0 -110 -48 -226 -116 -110 -63 -212 -122 -227
-130 l-28 -15 0 320 0 319 270 156 c149 86 273 156 275 156 3 0 5 -121 5 -270
0 -257 1 -271 20 -290 24 -24 38 -25 68 -4 22 15 22 16 22 338 0 320 0 323
-23 357 -17 26 -94 76 -332 213 -343 199 -363 206 -440 166z m347 -241 c145
-84 267 -155 271 -159 8 -7 -522 -320 -543 -320 -17 0 -552 311 -546 318 13
12 532 310 543 311 6 1 130 -67 275 -150z m-602 -425 l270 -156 0 -320 c0
-175 -3 -317 -7 -315 -80 43 -513 294 -525 305 -16 14 -18 42 -18 329 0 172 2
313 5 313 2 0 126 -70 275 -156z"/>
<path d="M2135 1904 c-71 -41 -136 -83 -142 -92 -7 -9 -13 -31 -13 -49 0 -37
-4 -39 -40 -18 -14 8 -34 14 -46 15 -24 0 -271 -143 -296 -172 -16 -17 -18
-42 -18 -175 0 -85 5 -163 10 -173 6 -10 55 -44 110 -76 55 -31 100 -59 100
-63 0 -3 -39 -28 -88 -55 -141 -79 -132 -62 -132 -251 0 -114 4 -166 13 -178
15 -20 271 -167 291 -167 9 0 30 9 48 20 18 11 36 20 41 20 4 0 7 -24 7 -54
l0 -54 141 -81 c77 -44 150 -81 161 -81 20 0 256 128 291 158 12 11 17 30 17
64 0 26 3 48 8 48 4 0 21 -9 37 -20 17 -11 37 -20 47 -20 24 0 259 136 286
166 21 24 22 34 22 175 0 83 -4 159 -10 169 -5 10 -55 44 -110 76 -55 32 -100
62 -100 65 0 4 47 34 104 67 72 42 105 68 110 84 9 35 7 294 -3 320 -12 31
-273 188 -313 188 -16 0 -39 -7 -52 -15 -23 -15 -23 -15 -30 23 -3 21 -14 46
-24 55 -28 25 -265 157 -282 157 -8 0 -73 -34 -145 -76z m255 -61 c55 -32 100
-60 100 -63 0 -3 -30 -22 -68 -42 -37 -21 -83 -47 -103 -59 l-36 -21 -101 58
c-56 32 -102 62 -102 65 0 8 189 119 203 119 4 0 52 -26 107 -57z m-120 -282
l0 -66 -50 -28 -49 -28 -3 68 -3 67 -54 31 c-50 30 -54 34 -57 76 -3 24 -2 49
0 56 3 8 42 -9 110 -49 l106 -61 0 -66z m240 131 l0 -58 -55 -29 -55 -30 0
-67 c0 -38 -2 -68 -4 -68 -2 0 -24 12 -50 26 l-47 26 3 70 3 70 100 59 c55 32
101 58 103 59 1 0 2 -26 2 -58z m271 -68 c60 -36 109 -68 109 -72 0 -4 -30
-24 -68 -44 -37 -21 -83 -47 -102 -58 l-35 -21 -104 60 c-57 33 -108 64 -114
70 -5 5 9 19 40 36 26 15 73 43 103 61 30 18 57 33 59 33 2 1 52 -29 112 -65z
m-777 3 c54 -29 99 -56 100 -61 0 -5 -49 -37 -111 -73 l-112 -64 -106 62 c-73
42 -102 65 -93 70 7 4 54 32 103 62 50 31 97 55 105 56 8 0 59 -23 114 -52z
m126 -155 l0 -58 -60 -34 c-66 -37 -68 -42 -72 -135 -3 -58 -4 -60 -43 -82
-22 -12 -44 -23 -48 -23 -4 0 -6 59 -5 132 l3 132 105 62 c58 34 108 62 113
63 4 1 7 -25 7 -57z m425 -6 l110 -64 3 -131 c2 -89 -1 -131 -8 -131 -6 0 -29
10 -50 23 l-40 22 0 66 c0 77 -8 91 -81 134 l-54 31 -3 57 c-2 31 1 57 5 57 4
0 58 -29 118 -64z m-791 -7 l106 -61 0 -119 c0 -65 -3 -119 -7 -119 -3 0 -53
26 -109 58 l-104 57 0 123 c0 67 2 122 4 122 2 0 52 -27 110 -61z m1154 -61
l-3 -122 -100 -58 c-55 -32 -104 -58 -108 -58 -4 0 -6 54 -5 121 l3 121 100
59 c55 32 104 58 108 59 4 0 6 -55 5 -122z m-518 0 c60 -35 110 -65 110 -68 0
-6 -215 -130 -225 -130 -15 0 -225 122 -225 130 0 8 208 130 223 130 4 0 57
-28 117 -62z m-208 -189 l78 -44 0 -133 c0 -74 -4 -132 -8 -130 -5 2 -59 32
-120 68 l-112 64 0 134 0 134 43 -24 c23 -13 77 -44 119 -69z m331 -180 c-4
-4 -37 -24 -73 -45 -36 -20 -84 -48 -107 -61 l-43 -25 0 135 0 135 113 64 112
64 3 -130 c1 -71 -1 -133 -5 -137z m-510 -23 c53 -32 97 -59 97 -61 0 -7 -217
-125 -230 -125 -11 0 -140 70 -193 106 -16 10 -5 19 85 70 109 62 130 73 138
69 3 -1 49 -28 103 -59z m826 -35 c24 -15 43 -31 42 -36 -1 -13 -177 -115
-197 -115 -8 0 -62 28 -120 61 -85 50 -103 64 -92 74 7 7 53 36 103 64 l89 50
66 -36 c36 -20 85 -48 109 -62z m-711 -118 l-3 -56 -60 -37 -60 -37 -3 -65 -3
-65 -49 -27 -50 -27 0 123 0 123 108 62 c59 34 111 63 115 63 4 0 7 -26 5 -57z
m435 -8 l107 -60 0 -122 c0 -68 -2 -123 -4 -123 -2 0 -24 12 -50 26 -44 25
-46 27 -46 72 0 75 -7 86 -76 126 l-64 38 0 55 c0 39 4 54 13 51 7 -2 61 -30
120 -63z m-798 -3 l100 -58 3 -122 c1 -67 -1 -122 -5 -122 -4 1 -53 27 -108
59 l-100 59 -3 121 c-1 67 1 121 5 121 4 0 53 -26 108 -58z m1155 -61 l0 -119
-106 -61 c-58 -34 -108 -61 -110 -61 -2 0 -4 55 -4 123 l1 122 97 56 c53 31
103 57 110 58 9 1 12 -29 12 -118z m-503 -10 c51 -30 91 -57 88 -61 -4 -6
-189 -116 -217 -128 -4 -2 -59 27 -123 64 -97 55 -114 69 -100 77 10 5 63 36
119 68 89 52 102 57 121 46 11 -8 62 -37 112 -66z m-262 -157 l115 -67 0 -118
c0 -68 -4 -119 -9 -119 -6 0 -58 28 -118 63 l-108 63 -3 122 c-1 67 0 122 3
122 2 0 57 -30 120 -66z m375 -57 l0 -123 -109 -62 c-60 -34 -112 -62 -115
-62 -4 0 -5 55 -4 121 l3 121 110 64 c61 35 111 64 113 64 1 0 2 -55 2 -123z"/>
<path d="M1220 1680 c0 -5 55 -42 121 -82 67 -39 117 -74 110 -76 -16 -5 -14
-32 3 -32 36 0 76 14 76 27 0 8 -7 28 -16 45 -15 29 -18 30 -29 15 -11 -16
-22 -12 -123 48 -106 62 -142 76 -142 55z"/>
</g>
</svg>
